<svg version="1.0" xmlns="http://www.w3.org/2000/svg"
 width="512.000000pt" height="512.000000pt" viewBox="0 0 512.000000 512.000000"
 preserveAspectRatio="xMidYMid meet">

<g transform="translate(0.000000,512.000000) scale(0.100000,-0.100000)"
fill="#000000" stroke="none">
<path d="M1223 4697 l-343 -342 0 -258 0 -257 -109 0 c-153 0 -218 -26 -268
-108 -23 -36 -23 -43 -23 -364 l0 -328 -107 0 c-123 0 -166 -14 -222 -71 -75
-75 -71 -10 -71 -999 0 -602 4 -897 11 -924 6 -21 31 -60 56 -87 71 -76 87
-79 435 -79 l298 0 0 -296 c0 -204 4 -310 12 -338 16 -55 99 -138 154 -154 32
-9 387 -12 1516 -12 1321 0 1479 2 1521 16 59 20 129 95 146 156 9 32 11 242
9 813 -3 853 1 794 -69 864 -72 72 75 66 -1609 66 -1683 0 -1535 6 -1608 -66
-67 -66 -67 -64 -70 -386 l-3 -293 25 -25 c33 -33 79 -33 111 0 l25 24 0 271
0 271 25 24 24 25 1471 0 1471 0 24 -25 25 -24 0 -751 0 -751 -25 -24 -24 -25
-1471 0 -1471 0 -24 25 -25 24 0 351 0 351 -25 24 -24 25 -340 0 c-360 0 -380
2 -400 47 -8 17 -11 196 -11 588 l0 565 2320 0 2320 0 0 -565 c0 -392 -3 -571
-11 -588 -19 -41 -48 -47 -240 -47 -178 0 -180 0 -204 -25 -33 -32 -33 -78 0
-110 24 -25 25 -25 218 -25 225 0 258 7 324 72 77 75 73 24 73 1017 0 990 4
925 -71 1000 -56 57 -99 71 -221 71 l-108 0 0 328 c0 321 0 328 -23 364 -50
82 -115 108 -268 108 l-109 0 0 496 c0 355 -3 508 -12 536 -6 22 -31 62 -55
88 -77 86 26 80 -1372 80 l-1236 0 -342 -343z m2832 158 l25 -24 0 -791 0
-791 25 -24 c15 -16 36 -25 55 -25 19 0 40 9 55 25 l25 24 0 -104 0 -105
-1600 0 -1600 0 0 600 0 600 295 0 296 0 24 25 25 24 0 296 0 295 1175 0 1176
0 24 -25z m-2535 -275 l0 -180 -182 0 -183 0 180 180 c99 99 181 180 182 180
2 0 3 -81 3 -180z"/>
<path d="M1770 3993 c-145 -16 -358 -68 -387 -96 -31 -28 -31 -86 0 -115 29
-27 61 -28 166 -2 136 34 278 50 451 50 201 0 313 -16 552 -75 258 -64 378
-78 623 -72 201 5 302 17 460 58 44 11 90 30 103 41 30 29 30 87 -1 116 -29
27 -61 28 -163 3 -140 -35 -285 -51 -454 -51 -185 0 -319 17 -495 62 -167 43
-276 65 -375 77 -78 10 -400 13 -480 4z"/>
<path d="M1770 3593 c-145 -16 -358 -68 -387 -96 -31 -28 -31 -86 0 -115 29
-27 61 -28 166 -2 136 34 278 50 451 50 201 0 313 -16 552 -75 258 -64 378
-78 623 -72 201 5 302 17 460 58 44 11 90 30 103 41 30 29 30 87 -1 116 -29
27 -61 28 -163 3 -140 -35 -285 -51 -454 -51 -185 0 -319 17 -495 62 -167 43
-276 65 -375 77 -78 10 -400 13 -480 4z"/>
<path d="M1385 1415 c-16 -15 -25 -36 -25 -55 0 -19 9 -40 25 -55 l24 -25
1151 0 1151 0 24 25 c16 15 25 36 25 55 0 19 -9 40 -25 55 l-24 25 -1151 0
-1151 0 -24 -25z"/>
<path d="M1385 775 c-16 -15 -25 -36 -25 -55 0 -19 9 -40 25 -55 l24 -25 871
0 871 0 24 25 c16 15 25 36 25 55 0 19 -9 40 -25 55 l-24 25 -871 0 -871 0
-24 -25z"/>
<path d="M3385 775 c-16 -15 -25 -36 -25 -55 0 -19 9 -40 25 -55 23 -24 28
-25 175 -25 147 0 152 1 175 25 16 15 25 36 25 55 0 19 -9 40 -25 55 -23 24
-28 25 -175 25 -147 0 -152 -1 -175 -25z"/>
</g>
</svg>
